<svg width="825" height="205" viewBox="0 0 825 205" fill="none" xmlns="http://www.w3.org/2000/svg">
<mask id="mask0_10_102" style="mask-type:luminance" maskUnits="userSpaceOnUse" x="620" y="0" width="205" height="205">
<path d="M825 0H620V205H825V0Z" fill="white"/>
</mask>
<g mask="url(#mask0_10_102)">
<path d="M681.475 128.128H635.35L655.85 107.628L619.975 71.7533L737.851 107.628H701.976L681.475 128.128Z" fill="#C5C5C5"/>
<path d="M760.482 76.8737L745.107 92.2487L775.857 122.999H807.486L776.736 92.2487L792.111 76.8737H760.482Z" stroke="#C5C5C5" stroke-width="10.25"/>
</g>
<path d="M296.644 78.0524L294.707 80.2828L292.653 78.1111L294.619 75.9101L296.644 78.0524ZM291.098 78.1111L289.19 80.3709L287.136 78.1992L289.073 75.9981L291.098 78.1111ZM299.726 99.1239H302.543V102H300.107C296.41 102 294.59 99.6229 294.062 96.8348L293.357 98.1555C290.98 99.7109 287.077 99.1239 285.522 98.4196C284.553 97.95 284.025 97.187 284.025 96.0718C284.025 95.162 284.318 93.4305 286.901 90.7012C289.396 88.0893 292.037 86.6806 293.152 86.1523L292.741 84.3621L294.796 83.5111C295.089 90.7306 295.089 91.1121 295.441 95.1327C295.647 97.187 296.791 99.1239 299.726 99.1239ZM289.249 96.2772C290.687 96.2772 292.037 96.0718 293.798 95.6903C293.798 92.9023 293.71 91.7577 293.357 88.0599C291.333 89.0578 288.515 91.3469 287.018 93.1957C285.404 95.1914 286.197 96.2772 289.249 96.2772ZM321.566 99.1239H323.092V102H321.918C320.568 102 319.16 101.677 317.839 100.709C316.871 100.034 316.078 99.1239 315.433 98.2435C313.143 100.327 309.915 102 305.63 102H302.549V99.1239H306.276C309.446 99.1239 313.055 98.2435 314.259 97.187C312.263 95.837 311.236 95.162 309.945 94.1642C308.712 93.1664 308.36 92.5501 308.36 91.0827C308.36 87.7371 310.209 86.7393 314.288 86.7393C319.101 86.7393 319.6 88.1186 319.717 90.1143C319.805 91.5229 319.659 92.4327 318.543 94.3696C317.986 95.3088 317.281 96.3066 316.401 97.2751C317.017 98.0381 317.604 98.5663 318.661 98.8598C319.541 99.1239 320.539 99.1239 321.566 99.1239ZM310.972 92.8729C312.146 93.7534 312.615 94.1349 315.344 96.2479C316.548 94.6925 318.162 92.2273 318.044 90.2903C317.839 89.7914 316.812 89.6154 314.171 89.6154C310.708 89.6154 310.091 89.9382 310.091 91.2001C310.091 91.699 310.179 92.2566 310.972 92.8729ZM323.098 102V99.1239H335.982C338.417 99.1239 340.031 97.8913 340.002 96.5414C340.002 95.8077 339.445 92.9903 338.828 90.8773L340.736 88.0893C341.264 89.7621 342.379 93.724 342.379 95.749C342.379 98.7424 340.002 102 335.101 102H323.098ZM333.399 111.861L331.374 109.63L333.399 107.429L335.395 109.63L333.399 111.861ZM349.487 112.272C348.871 112.272 347.814 112.213 345.789 111.303V110.335H347.58C348.841 110.335 351.365 110.129 353.625 108.515C357.323 105.815 358.438 100.503 358.438 99.3C358.438 98.3903 357.587 95.9251 355.415 92.6675L356.531 89.7034C359.025 93.2544 360.14 95.3381 360.14 99.2413C360.14 106.079 356.795 112.272 349.487 112.272ZM374.468 72.2416C374.644 72.5351 374.203 72.7699 373.881 72.8286C369.361 73.8851 369.097 73.9438 367.072 75.059C366.867 75.147 366.808 74.9416 366.749 74.7949C366.661 74.5014 366.573 74.296 366.573 74.1199C366.573 73.9438 366.808 73.7384 367.131 73.5329L368.95 72.5058C367.747 71.9775 367.277 71.0677 367.277 69.9819C367.277 67.6634 368.686 65.6678 370.828 65.6678C372.09 65.6678 372.56 66.5776 372.648 67.5167C372.707 67.9275 372.443 68.133 372.237 68.133C372.09 68.133 370.77 67.3406 369.831 67.3406C368.657 67.3406 368.363 67.7808 368.363 68.6612C368.363 69.6004 368.569 71.6547 371.181 71.6547C371.562 71.6547 372.413 71.596 373.03 71.596C373.646 71.596 374.086 71.5373 374.321 71.9775L374.468 72.2416ZM382.509 99.1826C382.714 99.7696 383.272 102 381.247 102H370.388C369.478 102 369.39 101.53 369.478 101.178L369.831 99.9163C370.036 99.2413 370.682 99.1239 371.239 99.1239H371.797C373.763 97.6859 375.906 94.7218 377.461 90.9947C375.847 87.9719 373.969 85.536 372.149 84.0687L371.768 84.3621C371.239 84.6263 370.887 84.5382 370.594 84.3035L369.068 83.1589C368.539 82.7774 368.246 81.985 368.334 81.3687L368.774 80.1655C368.833 79.4905 369.743 79.197 370.153 79.5785L373.411 82.3959C374.526 83.3643 376.434 85.5067 378.312 88.6762C379.104 86.2991 379.633 83.7165 379.721 81.0752C379.809 79.4024 379.662 78.0818 379.897 76.9959C380.014 76.3796 380.19 76.0275 380.66 76.0275H381.159C381.804 76.0275 381.834 76.4677 381.834 78.6981C381.834 83.0122 380.807 86.9447 379.251 90.3784C380.542 92.8436 381.716 95.8077 382.509 99.1826ZM378.224 92.5208C376.874 95.0446 375.289 97.2751 373.734 99.1239H380.631C379.985 96.7468 379.163 94.5457 378.224 92.5208ZM394.136 103.174L392.962 79.6372L395.78 76.497L396.014 98.7718L394.723 103.174H394.136ZM430.715 112.125C429.922 112.125 428.543 112.037 427.457 111.303V110.247C431.36 110.247 433.591 109.131 435.175 107.723C437.582 105.61 439.284 102.205 439.284 99.8283C439.284 97.5979 437.817 94.7218 437.024 92.4034L438.932 90.4958C439.842 93.1077 441.162 99.1239 444.537 99.1239H446.386V102H445.124C443.481 102 442.072 101.56 440.487 99.6815C440.986 103.203 439.284 108.075 436.819 110.188C435.293 111.479 433.004 112.125 430.715 112.125ZM446.392 102V99.1239H447.008C447.507 99.1239 447.713 98.7718 447.713 97.2751V95.4849C447.713 94.3403 447.977 93.724 448.593 93.724C449.239 93.724 449.444 94.3403 449.444 95.5142L449.415 97.95C449.415 98.8305 449.444 99.1239 450.471 99.1239C450.941 99.1239 451.234 98.8892 451.469 98.3316C454.316 92.1099 458.688 87.7078 461.799 87.7078C464.705 87.7078 466.524 91.6403 466.524 95.3381C466.524 100.268 463.531 102 457.925 102H452.085C450.765 102 449.297 100.709 449.062 100.268C448.769 101.061 447.419 102 446.392 102ZM452.261 99.1239H459.686C463.56 99.1239 464.822 98.3903 464.822 96.0718C464.822 93.4892 463.032 90.6719 460.919 90.6719C458.219 90.6719 454.991 94.5751 452.261 99.1239ZM480 102C475.833 102 473.456 101.149 473.221 95.3968C473.045 89.9969 473.074 86.9741 472.605 79.8133L475.217 77.5535V94.0468C475.217 98.1261 475.892 99.1239 478.856 99.1239H487.484V102H480ZM495.032 85.7415L493.007 83.5111L495.032 81.31L497.028 83.5111L495.032 85.7415ZM508.033 99.1239V102C503.778 102 501.899 101.032 500.755 97.187C499.64 100.621 498.172 102 494.504 102H487.49V99.1239H494.24C497.615 99.1239 499.904 98.4783 499.904 95.6316C499.904 94.7512 499.786 93.6947 499.61 92.5208L502.34 90.0849C502.281 91.4936 502.281 96.1305 502.34 97.0403C502.457 98.537 504.805 99.1239 508.033 99.1239ZM527.056 99.1239H528.582V102H527.408C526.058 102 524.65 101.677 523.329 100.709C522.36 100.034 521.568 99.1239 520.922 98.2435C518.633 100.327 515.405 102 511.12 102H508.039V99.1239H511.766C514.935 99.1239 518.545 98.2435 519.748 97.187C517.753 95.837 516.726 95.162 515.434 94.1642C514.202 93.1664 513.85 92.5501 513.85 91.0827C513.85 87.7371 515.699 86.7393 519.778 86.7393C524.591 86.7393 525.09 88.1186 525.207 90.1143C525.295 91.5229 525.148 92.4327 524.033 94.3696C523.476 95.3088 522.771 96.3066 521.891 97.2751C522.507 98.0381 523.094 98.5663 524.151 98.8598C525.031 99.1239 526.029 99.1239 527.056 99.1239ZM516.462 92.8729C517.635 93.7534 518.105 94.1349 520.834 96.2479C522.038 94.6925 523.652 92.2273 523.534 90.2903C523.329 89.7914 522.302 89.6154 519.66 89.6154C516.197 89.6154 515.581 89.9382 515.581 91.2001C515.581 91.699 515.669 92.2566 516.462 92.8729ZM528.588 102V99.1239H537.157C539.74 99.1239 540.268 97.8913 540.268 95.2794C540.268 91.9925 539.564 83.9806 538.83 79.2557L541.442 76.5851L543.438 80.4589L542.176 82.4546C542.176 84.1567 542.264 85.8882 542.264 90.349V96.2772C542.264 100.357 541.207 102 536.6 102H528.588ZM558.528 103.174L557.354 79.6372L560.171 76.497L560.406 98.7718L559.115 103.174H558.528Z" fill="#C5C5C5"/>
<path d="M286.325 130.197H282.678V128.957H291.385V130.197H287.767V140H286.325V130.197ZM293.406 128.957H294.877V133.57H299.389V128.957H300.845V140H299.389V134.839H294.877V140H293.406V128.957ZM304.091 128.957H310.925V130.197H305.533V133.599H310.089V134.839H305.533V138.76H311.083V140H304.091V128.957ZM324.597 128.957H331.387V130.197H326.039V133.873H330.565V135.098H326.039V140H324.597V128.957ZM333.264 134.45C333.264 130.86 335.023 128.755 337.517 128.755C339.997 128.755 341.755 130.86 341.755 134.45C341.755 138.054 339.997 140.202 337.517 140.202C335.023 140.202 333.264 138.054 333.264 134.45ZM340.256 134.45C340.256 131.682 339.16 130.053 337.517 130.053C335.873 130.053 334.778 131.682 334.778 134.45C334.778 137.232 335.873 138.919 337.517 138.919C339.16 138.919 340.256 137.232 340.256 134.45ZM343.877 135.819V128.957H345.348V135.877C345.348 138.111 346.314 138.919 347.611 138.919C348.937 138.919 349.918 138.111 349.918 135.877V128.957H351.316V135.819C351.316 138.976 349.802 140.202 347.611 140.202C345.434 140.202 343.877 138.976 343.877 135.819ZM361.987 140H360.329L357.705 135.372H355.759V140H354.318V128.957H357.763C360.012 128.957 361.641 129.764 361.641 132.1C361.641 133.801 360.675 134.825 359.19 135.199L361.987 140ZM355.774 130.154V134.19H357.561C359.262 134.19 360.185 133.513 360.185 132.1C360.185 130.658 359.262 130.154 357.561 130.154H355.774ZM374.751 128.957H381.584V130.197H376.193V133.599H380.748V134.839H376.193V138.76H381.743V140H374.751V128.957ZM385.177 128.957H386.619V138.76H392.039V140H385.177V128.957ZM394.94 128.957H401.773V130.197H396.381V133.599H400.937V134.839H396.381V138.76H401.931V140H394.94V128.957ZM404.327 128.957H405.956L407.571 133.642L408.133 135.401H408.205L408.753 133.642L410.397 128.957H412.011V140H410.757V133.931C410.757 133.008 410.858 131.365 410.93 130.442H410.872L410.152 132.806L408.537 137.073H407.758L406.144 132.806L405.437 130.442H405.38C405.452 131.365 405.567 133.008 405.567 133.931V140H404.327V128.957ZM415.128 128.957H421.961V130.197H416.57V133.599H421.125V134.839H416.57V138.76H422.12V140H415.128V128.957ZM424.703 128.957H426.174L429.706 135.848L430.801 138.111H430.845C430.773 137.016 430.643 135.762 430.643 134.594V128.957H432.027V140H430.556L427.039 133.109L425.929 130.846H425.885C425.943 131.985 426.087 133.181 426.087 134.334V140H424.703V128.957ZM437.738 130.197H434.091V128.957H442.799V130.197H439.18V140H437.738V130.197ZM444.618 138.573L445.483 137.564C446.319 138.385 447.458 138.919 448.712 138.919C450.197 138.919 451.062 138.212 451.062 137.218C451.062 136.064 450.211 135.733 449.087 135.257L447.516 134.565C446.405 134.118 445.137 133.34 445.137 131.711C445.137 130.024 446.651 128.755 448.784 128.755C450.139 128.755 451.365 129.332 452.172 130.139L451.408 131.062C450.687 130.442 449.851 130.053 448.712 130.053C447.458 130.053 446.622 130.658 446.622 131.624C446.622 132.662 447.631 133.051 448.568 133.426L450.11 134.104C451.48 134.652 452.547 135.416 452.547 137.045C452.547 138.803 451.062 140.202 448.626 140.202C447.025 140.202 445.627 139.582 444.618 138.573Z" fill="#B4B4B4"/>
<path d="M232 0V205" stroke="white" stroke-opacity="0.13"/>
<path d="M0.87962 176.506C0.87962 172.915 2.92726 170.752 5.78242 170.752C7.23884 170.752 8.20498 171.459 8.83946 172.122L8.0031 173.045C7.48398 172.483 6.83508 172.05 5.78242 172.05C3.73478 172.05 2.39372 173.737 2.39372 176.463C2.39372 179.203 3.61942 180.918 5.75358 180.918C6.51784 180.918 7.22442 180.688 7.61376 180.284V177.472H5.46518V176.261H8.96924V180.918C8.26266 181.639 7.08022 182.202 5.66706 182.202C2.89842 182.202 0.87962 180.082 0.87962 176.506ZM11.683 180.76H14.4228V172.194H11.683V170.954H18.6046V172.194H15.8648V180.76H18.6046V182H11.683V180.76ZM24.5196 172.194H20.8714V170.954H29.5811V172.194H25.9616V182H24.5196V172.194ZM31.6027 170.954H33.0735V175.569H37.587V170.954H39.0434V182H37.587V176.838H33.0735V182H31.6027V170.954ZM41.6995 177.818V170.954H43.1703V177.876C43.1703 180.111 44.1365 180.918 45.4343 180.918C46.7609 180.918 47.7415 180.111 47.7415 177.876V170.954H49.1402V177.818C49.1402 180.976 47.6261 182.202 45.4343 182.202C43.2568 182.202 41.6995 180.976 41.6995 177.818ZM52.128 170.954H55.2859C57.5787 170.954 59.064 171.719 59.064 173.68C59.064 174.761 58.4439 175.742 57.1461 176.073V176.145C58.7612 176.405 59.684 177.27 59.684 178.77C59.684 180.947 58.0402 182 55.5455 182H52.128V170.954ZM55.0696 175.67C56.9154 175.67 57.6364 175.021 57.6364 173.838C57.6364 172.613 56.8433 172.122 55.1273 172.122H53.5988V175.67H55.0696ZM55.358 180.846C57.2471 180.846 58.242 180.169 58.242 178.698C58.242 177.357 57.2471 176.737 55.358 176.737H53.5988V180.846H55.358ZM71.4708 176.448C71.4708 172.858 73.2301 170.752 75.7247 170.752C78.205 170.752 79.9642 172.858 79.9642 176.448C79.9642 180.053 78.205 182.202 75.7247 182.202C73.2301 182.202 71.4708 180.053 71.4708 176.448ZM78.4645 176.448C78.4645 173.68 77.3686 172.05 75.7247 172.05C74.0808 172.05 72.9849 173.68 72.9849 176.448C72.9849 179.231 74.0808 180.918 75.7247 180.918C77.3686 180.918 78.4645 179.231 78.4645 176.448ZM82.4761 170.954H85.8359C88.2729 170.954 89.9168 171.805 89.9168 174.228C89.9168 176.564 88.2441 177.66 85.8359 177.66H83.9181V182H82.4761V170.954ZM85.6629 176.477C87.5519 176.477 88.4604 175.785 88.4604 174.228C88.4604 172.656 87.5375 172.151 85.6629 172.151H83.9181V176.477H85.6629ZM92.7748 170.954H99.6099V172.194H94.2168V175.598H98.7735V176.838H94.2168V180.76H99.7685V182H92.7748V170.954ZM102.352 170.954H103.823L107.356 177.847L108.452 180.111H108.495C108.423 179.015 108.294 177.761 108.294 176.592V170.954H109.678V182H108.207L104.689 175.107L103.578 172.843H103.535C103.593 173.982 103.737 175.179 103.737 176.333V182H102.352V170.954ZM112.651 175.915H119.876V176.996H112.651V175.915ZM122.272 180.572L123.137 179.563C123.974 180.385 125.113 180.918 126.367 180.918C127.853 180.918 128.718 180.212 128.718 179.217C128.718 178.063 127.867 177.732 126.742 177.256L125.171 176.564C124.06 176.117 122.791 175.338 122.791 173.708C122.791 172.021 124.305 170.752 126.44 170.752C127.795 170.752 129.021 171.329 129.828 172.137L129.064 173.06C128.343 172.44 127.507 172.05 126.367 172.05C125.113 172.05 124.277 172.656 124.277 173.622C124.277 174.66 125.286 175.05 126.223 175.424L127.766 176.102C129.136 176.65 130.203 177.414 130.203 179.044C130.203 180.803 128.718 182.202 126.281 182.202C124.68 182.202 123.282 181.582 122.272 180.572ZM132.052 176.448C132.052 172.858 133.811 170.752 136.306 170.752C138.786 170.752 140.545 172.858 140.545 176.448C140.545 180.053 138.786 182.202 136.306 182.202C133.811 182.202 132.052 180.053 132.052 176.448ZM139.045 176.448C139.045 173.68 137.949 172.05 136.306 172.05C134.662 172.05 133.566 173.68 133.566 176.448C133.566 179.231 134.662 180.918 136.306 180.918C137.949 180.918 139.045 179.231 139.045 176.448ZM142.668 177.818V170.954H144.138V177.876C144.138 180.111 145.105 180.918 146.402 180.918C147.729 180.918 148.71 180.111 148.71 177.876V170.954H150.108V177.818C150.108 180.976 148.594 182.202 146.402 182.202C144.225 182.202 142.668 180.976 142.668 177.818ZM160.782 182H159.124L156.499 177.371H154.553V182H153.111V170.954H156.557C158.806 170.954 160.436 171.762 160.436 174.098C160.436 175.799 159.47 176.823 157.985 177.198L160.782 182ZM154.567 172.151V176.189H156.355C158.057 176.189 158.979 175.511 158.979 174.098C158.979 172.656 158.057 172.151 156.355 172.151H154.567ZM162.631 176.506C162.631 172.93 164.721 170.752 167.591 170.752C168.918 170.752 169.97 171.43 170.619 172.122L169.797 173.045C169.235 172.44 168.514 172.05 167.591 172.05C165.5 172.05 164.145 173.737 164.145 176.463C164.145 179.203 165.5 180.918 167.591 180.918C168.6 180.918 169.365 180.486 170.057 179.722L170.879 180.616C170.014 181.625 168.918 182.202 167.461 182.202C164.736 182.202 162.631 180.082 162.631 176.506ZM173.549 170.954H180.384V172.194H174.991V175.598H179.548V176.838H174.991V180.76H180.543V182H173.549V170.954Z" fill="#B4B4B4"/>
<path fill-rule="evenodd" clip-rule="evenodd" d="M27 78.1278C27 42.1454 55.8637 13 91.5 13C127.136 13 156 42.1454 156 78.1665C156 86.3962 154.488 94.2688 151.728 101.517C147.436 96.8932 141.306 94 134.5 94C132.012 94 129.614 94.3867 127.363 95.1032C130.623 90.412 132.638 83.8761 132.638 74.7287C132.638 67.6122 130.144 61.8158 126.027 57.2578C126.7 55.6194 128.919 48.9824 125.393 40.0255C125.393 40.0255 119.968 38.2668 107.655 46.7034C102.508 45.2629 96.9631 44.5448 91.5 44.504C85.996 44.5448 80.492 45.2629 75.3449 46.7034C63.0319 38.2668 57.6074 40.0255 57.6074 40.0255C54.1223 48.9803 56.3389 55.5786 57.014 57.2578C52.8559 61.8158 50.3619 67.6122 50.3619 74.7287C50.3619 99.6751 65.4076 105.274 79.7008 106.871C77.8798 108.512 76.2156 111.39 75.6244 115.587C71.9393 117.266 62.5954 120.145 56.8549 110.191C56.8549 110.191 53.4106 103.954 46.9563 103.474C46.9563 103.474 40.6611 103.395 46.5198 107.432C46.5198 107.432 50.7575 109.471 53.688 116.987C53.688 116.987 57.4892 129.62 75.4244 125.703C75.4395 127.817 75.4549 129.726 75.468 131.361C75.4887 133.931 75.504 135.824 75.504 136.776C75.504 138.536 74.3151 140.536 71.1094 139.936C45.49 131.299 27 106.912 27 78.1278ZM115.096 104.239C111.301 105.65 107.213 106.412 103.181 106.871C105.477 108.871 107.576 112.87 107.576 118.946C107.576 124.765 107.54 129.818 107.517 133.177C107.505 134.848 107.496 136.099 107.496 136.816C107.496 138.577 108.644 140.575 111.931 139.934C114.876 138.942 117.726 137.741 120.464 136.35C114.72 132.065 111 125.217 111 117.5C111 112.58 112.512 108.013 115.096 104.239Z" fill="#C5C5C5"/>
<path d="M139.816 134.173C140.151 135.226 141.282 135.816 142.294 135.375C145.912 133.797 148.982 131.151 151.077 127.769C153.525 123.818 154.48 119.122 153.772 114.529C153.064 109.935 150.739 105.746 147.215 102.715C143.691 99.6848 139.2 98.0126 134.553 98.0001C129.905 97.9876 125.405 99.6355 121.865 102.647C118.325 105.658 115.977 109.835 115.244 114.425C114.511 119.015 115.442 123.715 117.868 127.679C119.944 131.073 123 133.735 126.61 135.332C127.62 135.779 128.753 135.195 129.095 134.144L132.435 123.86C132.776 122.809 132.152 121.704 131.337 120.958C131.015 120.664 130.734 120.324 130.503 119.946C129.92 118.994 129.696 117.864 129.872 116.761C130.048 115.658 130.613 114.654 131.463 113.93C132.314 113.207 133.396 112.81 134.513 112.813C135.63 112.816 136.709 113.218 137.556 113.947C138.403 114.675 138.962 115.682 139.132 116.786C139.302 117.89 139.072 119.018 138.484 119.968C138.251 120.344 137.968 120.683 137.644 120.975C136.825 121.716 136.196 122.818 136.531 123.871L139.816 134.173Z" fill="#C5C5C5"/>
</svg>
